<svg xmlns="http://www.w3.org/2000/svg" version="1.1" xmlns:xlink="http://www.w3.org/1999/xlink" xmlns:svgjs="http://svgjs.dev/svgjs" width="1000" height="1000"><style>
    #light-icon {
      display: inline;
    }
    #dark-icon {
      display: none;
    }

    @media (prefers-color-scheme: dark) {
      #light-icon {
        display: none;
      }
      #dark-icon {
        display: inline;
      }
    }
  </style><g id="light-icon"><svg xmlns="http://www.w3.org/2000/svg" version="1.1" xmlns:xlink="http://www.w3.org/1999/xlink" xmlns:svgjs="http://svgjs.dev/svgjs" width="1000" height="1000"><g clip-path="url(#SvgjsClipPath1157)"><rect width="1000" height="1000" fill="#ffffff"></rect><g transform="matrix(41.666666666666664,0,0,41.666666666666664,0,0)"><svg xmlns="http://www.w3.org/2000/svg" version="1.1" xmlns:xlink="http://www.w3.org/1999/xlink" xmlns:svgjs="http://svgjs.dev/svgjs" width="24" height="24"><svg xmlns="http://www.w3.org/2000/svg" width="24" height="24" viewBox="0 0 24 24">
  <g>
    <path d="M12,2A8,8,0,0,0,9.435,17.572L12,21.992l2.565-4.42A8,8,0,0,0,12,2Zm1.626,13.77-.391.11L12,18.008,10.765,15.88l-.391-.11a6,6,0,1,1,3.252,0Z"></path>
    <path d="M12,7a3,3,0,1,0,3,3A3,3,0,0,0,12,7Zm0,4a1,1,0,1,1,1-1A1,1,0,0,1,12,11Z"></path>
  </g>
</svg></svg></g></g><defs><clipPath id="SvgjsClipPath1157"><rect width="1000" height="1000" x="0" y="0" rx="400" ry="400"></rect></clipPath></defs></svg></g><g id="dark-icon"><svg xmlns="http://www.w3.org/2000/svg" version="1.1" xmlns:xlink="http://www.w3.org/1999/xlink" xmlns:svgjs="http://svgjs.dev/svgjs" width="1000" height="1000"><g><g transform="matrix(41.666666666666664,0,0,41.666666666666664,0,0)" style="filter: invert(100%)"><svg xmlns="http://www.w3.org/2000/svg" version="1.1" xmlns:xlink="http://www.w3.org/1999/xlink" xmlns:svgjs="http://svgjs.dev/svgjs" width="24" height="24"><svg xmlns="http://www.w3.org/2000/svg" width="24" height="24" viewBox="0 0 24 24">
  <g>
    <path d="M12,2A8,8,0,0,0,9.435,17.572L12,21.992l2.565-4.42A8,8,0,0,0,12,2Zm1.626,13.77-.391.11L12,18.008,10.765,15.88l-.391-.11a6,6,0,1,1,3.252,0Z"></path>
    <path d="M12,7a3,3,0,1,0,3,3A3,3,0,0,0,12,7Zm0,4a1,1,0,1,1,1-1A1,1,0,0,1,12,11Z"></path>
  </g>
</svg></svg></g></g></svg></g></svg>